{"title":"The Ward DVDRIP XViD - IMAGiNE","uid":6502124,"size":1281293408,"categoryP":"video","categoryS":"movies","magnet":"?xt=urn:btih:f531c675428568549f9e91fa819e9ba6378f3a89&amp;dn=The+Ward+DVDRIP+XViD+-+IMAGiNE&amp;tr=udp%3A%2F%2Ftracker.openbittorrent.com%3A80&amp;tr=udp%3A%2F%2Fopen.demonii.com%3A1337&amp;tr=udp%3A%2F%2Ftracker.coppersurfer.tk%3A6969&amp;tr=udp%3A%2F%2Fexodus.desync.com%3A6969","seeders":0,"leechers":1,"uploader":"SAFCukO09","files":3,"time":1309285653,"description":"*********** **** **** *** ******** *********** **** *** **********\n\n*+* +*+*+* *+*+*+ *+* *+* *+* *+* *+* *+*+* *+* *+*\n\n+*+ +*+ +*+*+ +*+ +*+ +*+ +*+ +*+ *+*+*+ +*+ +*+\n\n+$+ +$+ +*+ +$+ +$++*++$++* *$* +$+ +$+ +*+ +$+ +$++*++$\n\n+$+ +$+ +$+ +$+ +$+ +$+ +$+$ +$+ +$+ +$+$+$ +$+\n\n$+$ $+$ $+$ $+$ $+$ $+$ $+$ $+$ $+$ $+$+$ $+$\n\n$$$$$$$$$$$ $$$ $$$ $$$ $$$ $$$$$$$$ $$$$$$$$$$$ $$$ $$$$ $$$$$$$$$$\n\n\n\n\n\n\n\n\n\nAnother Fine Release Brought to you from - IMAGiNE\n\n\n\n\n\n********************************************************************************************************************\n\nThe Ward DVDRIP XViD - IMAGiNE\n\n********************************************************************************************************************\n\n\n\nRipper ...........:IMAGiNE IMDB Rating.......:5.8/10\n\nVideo Codec.......:XVID Release Date......:28/06/11\n\nAudio Codec.......:AC-3 Theatre Date......:08/07/11\n\nAudio Bitrate.....:448 Runtime...........:1h 24mn\n\nSubtitles.........:NIL Language..........:ENGLISH\n\nResolution........:720 x 400 IMDb URL.......... http://www.imdb.com/title/tt1369706/\n\n\n\nDETAILS:\n\n\n\nVideo\n\nID : 0\n\nFormat : MPEG-4 Visual\n\nFormat profile : Advanced Simple@L5\n\nFormat settings, BVOP : Yes\n\nFormat settings, QPel : No\n\nFormat settings, GMC : No warppoints\n\nFormat settings, Matrix : Default (H.263)\n\nMuxing mode : Packed bitstream\n\nCodec ID : XVID\n\nCodec ID/Hint : XviD\n\nDuration : 1h 24mn\n\nBit rate : 1 528 Kbps\n\nWidth : 720 pixels\n\nHeight : 400 pixels\n\nDisplay aspect ratio : 16:9\n\nFrame rate : 25.000 fps\n\nColor space : YUV\n\nChroma subsampling : 4:2:0\n\nBit depth : 8 bits\n\nScan type : Progressive\n\nCompression mode : Lossy\n\nBits/(Pixel*Frame) : 0.212\n\nStream size : 927 MiB (77%)\n\nWriting library : XviD 58\n\n\n\nAudio\n\nID : 1\n\nFormat : AC-3\n\nFormat/Info : Audio Coding 3\n\nMode extension : CM (complete main)\n\nCodec ID : 2000\n\nDuration : 1h 24mn\n\nBit rate mode : Constant\n\nBit rate : 448 Kbps\n\nChannel(s) : 6 channels\n\nChannel positions : Front: L C R, Side: L R, LFE\n\nSampling rate : 48.0 KHz\n\nBit depth : 16 bits\n\nCompression mode : Lossy\n\nStream size : 272 MiB (23%)\n\nAlignment : Aligned on interleaves\n\nInterleave, duration : 40 ms (1.00 video frame)\n\nInterleave, preload duration : 512 ms\n\n\n\n\n\n\n\n\n\n\n\n\n\nSOURCES:\n\n\n\nVIDEO: Thankd m8ty ;-)\n\nAUDIO: Thankd m8ty ;-)\n\n\n\nNOTES:\n\n\n\n\n\nHere we go with a nice dvdrip.....source was really nice as you would expect so we just ripped it\n\n\n\n\n\n\n\nAudio we just remuxed AC3 back to our encode.;-)\n\n\n\nEnjoy folks ;-)","torrent":{"xt":"urn:btih:f531c675428568549f9e91fa819e9ba6378f3a89","amp;dn":"The+Ward+DVDRIP+XViD+-+IMAGiNE","amp;tr":["udp%3A%2F%2Ftracker.openbittorrent.com%3A80","udp%3A%2F%2Fopen.demonii.com%3A1337","udp%3A%2F%2Ftracker.coppersurfer.tk%3A6969","udp%3A%2F%2Fexodus.desync.com%3A6969"],"infoHash":"f531c675428568549f9e91fa819e9ba6378f3a89","infoHashBuffer":{"type":"Buffer","data":[245,49,198,117,66,133,104,84,159,158,145,250,129,158,155,166,55,143,58,137]},"announce":[],"urlList":[]}}